<?xml version="1.0" encoding="utf-8"?>
<svg xmlns="http://www.w3.org/2000/svg" xmlns:xlink="http://www.w3.org/1999/xlink" style="margin: auto; background: none; display: block; shape-rendering: auto;" width="187px" height="187px" viewBox="0 0 100 100" preserveAspectRatio="xMidYMid">
<g transform="rotate(0 50 50)">
  <rect x="39.5" y="23.5" rx="10.5" ry="6.5" width="21" height="13" fill="#1d3f72">
    <animate attributeName="opacity" values="1;0" keyTimes="0;1" dur="1.5873015873015872s" begin="-1.511715797430083s" repeatCount="indefinite"></animate>
  </rect>
</g><g transform="rotate(17.142857142857142 50 50)">
  <rect x="39.5" y="23.5" rx="10.5" ry="6.5" width="21" height="13" fill="#1d3f72">
    <animate attributeName="opacity" values="1;0" keyTimes="0;1" dur="1.5873015873015872s" begin="-1.436130007558579s" repeatCount="indefinite"></animate>
  </rect>
</g><g transform="rotate(34.285714285714285 50 50)">
  <rect x="39.5" y="23.5" rx="10.5" ry="6.5" width="21" height="13" fill="#1d3f72">
    <animate attributeName="opacity" values="1;0" keyTimes="0;1" dur="1.5873015873015872s" begin="-1.3605442176870748s" repeatCount="indefinite"></animate>
  </rect>
</g><g transform="rotate(51.42857142857143 50 50)">
  <rect x="39.5" y="23.5" rx="10.5" ry="6.5" width="21" height="13" fill="#1d3f72">
    <animate attributeName="opacity" values="1;0" keyTimes="0;1" dur="1.5873015873015872s" begin="-1.2849584278155706s" repeatCount="indefinite"></animate>
  </rect>
</g><g transform="rotate(68.57142857142857 50 50)">
  <rect x="39.5" y="23.5" rx="10.5" ry="6.5" width="21" height="13" fill="#1d3f72">
    <animate attributeName="opacity" values="1;0" keyTimes="0;1" dur="1.5873015873015872s" begin="-1.2093726379440666s" repeatCount="indefinite"></animate>
  </rect>
</g><g transform="rotate(85.71428571428571 50 50)">
  <rect x="39.5" y="23.5" rx="10.5" ry="6.5" width="21" height="13" fill="#1d3f72">
    <animate attributeName="opacity" values="1;0" keyTimes="0;1" dur="1.5873015873015872s" begin="-1.1337868480725624s" repeatCount="indefinite"></animate>
  </rect>
</g><g transform="rotate(102.85714285714286 50 50)">
  <rect x="39.5" y="23.5" rx="10.5" ry="6.5" width="21" height="13" fill="#1d3f72">
    <animate attributeName="opacity" values="1;0" keyTimes="0;1" dur="1.5873015873015872s" begin="-1.0582010582010581s" repeatCount="indefinite"></animate>
  </rect>
</g><g transform="rotate(120 50 50)">
  <rect x="39.5" y="23.5" rx="10.5" ry="6.5" width="21" height="13" fill="#1d3f72">
    <animate attributeName="opacity" values="1;0" keyTimes="0;1" dur="1.5873015873015872s" begin="-0.982615268329554s" repeatCount="indefinite"></animate>
  </rect>
</g><g transform="rotate(137.14285714285714 50 50)">
  <rect x="39.5" y="23.5" rx="10.5" ry="6.5" width="21" height="13" fill="#1d3f72">
    <animate attributeName="opacity" values="1;0" keyTimes="0;1" dur="1.5873015873015872s" begin="-0.9070294784580498s" repeatCount="indefinite"></animate>
  </rect>
</g><g transform="rotate(154.28571428571428 50 50)">
  <rect x="39.5" y="23.5" rx="10.5" ry="6.5" width="21" height="13" fill="#1d3f72">
    <animate attributeName="opacity" values="1;0" keyTimes="0;1" dur="1.5873015873015872s" begin="-0.8314436885865457s" repeatCount="indefinite"></animate>
  </rect>
</g><g transform="rotate(171.42857142857142 50 50)">
  <rect x="39.5" y="23.5" rx="10.5" ry="6.5" width="21" height="13" fill="#1d3f72">
    <animate attributeName="opacity" values="1;0" keyTimes="0;1" dur="1.5873015873015872s" begin="-0.7558578987150415s" repeatCount="indefinite"></animate>
  </rect>
</g><g transform="rotate(188.57142857142858 50 50)">
  <rect x="39.5" y="23.5" rx="10.5" ry="6.5" width="21" height="13" fill="#1d3f72">
    <animate attributeName="opacity" values="1;0" keyTimes="0;1" dur="1.5873015873015872s" begin="-0.6802721088435374s" repeatCount="indefinite"></animate>
  </rect>
</g><g transform="rotate(205.71428571428572 50 50)">
  <rect x="39.5" y="23.5" rx="10.5" ry="6.5" width="21" height="13" fill="#1d3f72">
    <animate attributeName="opacity" values="1;0" keyTimes="0;1" dur="1.5873015873015872s" begin="-0.6046863189720333s" repeatCount="indefinite"></animate>
  </rect>
</g><g transform="rotate(222.85714285714286 50 50)">
  <rect x="39.5" y="23.5" rx="10.5" ry="6.5" width="21" height="13" fill="#1d3f72">
    <animate attributeName="opacity" values="1;0" keyTimes="0;1" dur="1.5873015873015872s" begin="-0.5291005291005291s" repeatCount="indefinite"></animate>
  </rect>
</g><g transform="rotate(240 50 50)">
  <rect x="39.5" y="23.5" rx="10.5" ry="6.5" width="21" height="13" fill="#1d3f72">
    <animate attributeName="opacity" values="1;0" keyTimes="0;1" dur="1.5873015873015872s" begin="-0.4535147392290249s" repeatCount="indefinite"></animate>
  </rect>
</g><g transform="rotate(257.14285714285717 50 50)">
  <rect x="39.5" y="23.5" rx="10.5" ry="6.5" width="21" height="13" fill="#1d3f72">
    <animate attributeName="opacity" values="1;0" keyTimes="0;1" dur="1.5873015873015872s" begin="-0.37792894935752075s" repeatCount="indefinite"></animate>
  </rect>
</g><g transform="rotate(274.2857142857143 50 50)">
  <rect x="39.5" y="23.5" rx="10.5" ry="6.5" width="21" height="13" fill="#1d3f72">
    <animate attributeName="opacity" values="1;0" keyTimes="0;1" dur="1.5873015873015872s" begin="-0.30234315948601664s" repeatCount="indefinite"></animate>
  </rect>
</g><g transform="rotate(291.42857142857144 50 50)">
  <rect x="39.5" y="23.5" rx="10.5" ry="6.5" width="21" height="13" fill="#1d3f72">
    <animate attributeName="opacity" values="1;0" keyTimes="0;1" dur="1.5873015873015872s" begin="-0.22675736961451246s" repeatCount="indefinite"></animate>
  </rect>
</g><g transform="rotate(308.57142857142856 50 50)">
  <rect x="39.5" y="23.5" rx="10.5" ry="6.5" width="21" height="13" fill="#1d3f72">
    <animate attributeName="opacity" values="1;0" keyTimes="0;1" dur="1.5873015873015872s" begin="-0.15117157974300832s" repeatCount="indefinite"></animate>
  </rect>
</g><g transform="rotate(325.7142857142857 50 50)">
  <rect x="39.5" y="23.5" rx="10.5" ry="6.5" width="21" height="13" fill="#1d3f72">
    <animate attributeName="opacity" values="1;0" keyTimes="0;1" dur="1.5873015873015872s" begin="-0.07558578987150416s" repeatCount="indefinite"></animate>
  </rect>
</g><g transform="rotate(342.85714285714283 50 50)">
  <rect x="39.5" y="23.5" rx="10.5" ry="6.5" width="21" height="13" fill="#1d3f72">
    <animate attributeName="opacity" values="1;0" keyTimes="0;1" dur="1.5873015873015872s" begin="0s" repeatCount="indefinite"></animate>
  </rect>
</g>
<!-- [ldio] generated by https://loading.io/ --></svg>